<?xml version="1.0" encoding="utf-8"?>
<!-- Generator: Adobe Illustrator 21.0.0, SVG Export Plug-In . SVG Version: 6.00 Build 0)  -->
<svg version="1.1" id="Layer_1" xmlns="http://www.w3.org/2000/svg" xmlns:xlink="http://www.w3.org/1999/xlink" x="0px" y="0px"
	 viewBox="0 0 640 480" style="enable-background:new 0 0 640 480;" xml:space="preserve">
<style type="text/css">
	.st0{fill:#FFFFFF;}
</style>
<g>
	<g>
		<path class="st0" d="M320.5,68c30.3,0,58.8,11.8,80.3,33.2c21.4,21.4,33.2,49.9,33.2,80.3s-11.8,58.8-33.2,80.3
			c-21.4,21.4-49.9,33.2-80.3,33.2s-58.8-11.8-80.3-33.2c-21.4-21.4-33.2-49.9-33.2-80.3s11.8-58.8,33.2-80.3
			C261.7,79.8,290.2,68,320.5,68 M320.5,38C241.2,38,177,102.2,177,181.5S241.2,325,320.5,325S464,260.8,464,181.5
			S399.7,38,320.5,38L320.5,38z"/>
	</g>
	<g>
		<g>
			<path class="st0" d="M317.5,159.5l20.9,2.1l-34.8,107.7l-22.7-2.3L261,186.7l-24.7,75.7l-21.2-2.2l34.2-106l23.9,2.4l19.2,78.2
				L317.5,159.5z"/>
		</g>
		<g>
			<path class="st0" d="M408.4,91.4l-25,83.7c-3.5,11-9,18.9-16.4,23.8c-7.4,4.9-16.6,6.8-27.5,5.7c-11-1.1-18.7-4.1-22.9-9
				c-3.6-4.1-5-9.7-4.3-16.9c0.3-3.3,1-6.6,1.9-9.9c1.5-4.5,2.6-7.8,3.3-10.1l20.9,2.1c-1,3-1.7,5.2-2,6.4c-0.9,3.2-1.5,6.1-1.8,8.7
				c-0.4,3.5,0.1,6,1.5,7.7c1.3,1.6,3.8,2.7,7.5,3c4.1,0.4,7.4-0.1,9.8-1.7c3.1-2,5.6-6.1,7.6-12.3l25-83.7L408.4,91.4z"/>
		</g>
	</g>
</g>
<g>
	<path class="st0" d="M48,405.9l-1.5,7l-30-14l1.2-5.8l36-14.1l-1.5,7l-25.6,10L48,405.9z"/>
	<path class="st0" d="M70,412.3v-46.4h13.6l7.8,28.6v-28.6h11.3v46.4H89.5l-8.1-28.7v28.7H70z"/>
	<path class="st0" d="M114.7,374.6v-8.7h11.7v8.7H114.7z M114.7,412.3v-35.2h11.7v35.2H114.7z"/>
	<path class="st0" d="M165.8,396.7h-17.4v4.6c0,3.2,1.1,4.7,3.2,4.7c2.2,0,3.3-2,3.3-6.1h10.5c-0.1,8.8-4.7,13.3-13.7,13.3
		c-5.6,0-9.5-1.4-11.6-4.2c-2.2-2.8-3.3-7.5-3.3-14.3c0-6.7,1.2-11.4,3.5-14.3c2.3-2.8,6.2-4.3,11.4-4.3c4.9,0,8.4,1.2,10.6,3.6
		c2.3,2.6,3.5,7.1,3.5,13.3V396.7z M154.9,390.4v-1.6c0-3.6-1.1-5.4-3.3-5.4c-2.1,0-3.2,1.8-3.2,5.4v1.6H154.9z"/>
	<path class="st0" d="M175.2,412.3v-35.2h11.3v5.6h0.1c0.6-2.1,1.7-3.7,3.1-4.8c1.4-1.1,3-1.7,4.8-1.7h1.9v10.9
		c-0.9-0.2-1.9-0.3-2.9-0.3c-4.4,0-6.6,2.1-6.6,6.2v19.2H175.2z"/>
	<path class="st0" d="M205.1,374.6v-8.7h11.7v8.7H205.1z M205.1,412.3v-35.2h11.7v35.2H205.1z"/>
	<path class="st0" d="M256.2,390.9h-10.5c0-2.7-0.3-4.5-0.7-5.6s-1.4-1.6-2.6-1.6c-1.3,0-2.3,0.8-2.7,2.3c-0.5,1.5-0.7,4.4-0.7,8.7
		s0.2,7.2,0.7,8.7c0.5,1.5,1.4,2.2,2.7,2.2c2.3,0,3.4-1.9,3.4-5.8v-2.3h10.5c0,5.6-1,9.6-3.1,11.9c-2.2,2.5-5.8,3.7-10.8,3.7
		c-5,0-8.7-1.1-10.9-3.3c-2.8-2.7-4.2-7.6-4.2-14.6c0-7.6,1.5-12.9,4.5-15.8c2.3-2.2,6.1-3.3,11.2-3.3c4.9,0,8.4,1.3,10.6,4
		C255.3,382.6,256.2,386.2,256.2,390.9z"/>
	<path class="st0" d="M309.7,365.7h3.1h3.2v33.5c0,4.6-1.2,8.1-3.5,10.6c-2.3,2.5-5.6,3.7-9.9,3.7c-4.4,0-7.7-1.2-10.1-3.5
		c-2.4-2.3-3.5-5.5-3.3-9.6v-3.2h5.9v3.2c0,2.5,0.6,4.4,1.8,5.7c1.2,1.3,3,2,5.2,2c2.3,0,4.1-0.8,5.4-2.4c1.3-1.6,2-3.8,2-6.6V365.7
		z"/>
	<path class="st0" d="M340.3,413.3c-3.3,0-6-0.9-7.9-2.7c-1.9-1.8-2.9-4.2-2.9-7.2c0-3,0.9-5.5,2.7-7.3c1.8-1.8,4.5-2.9,8-3.4l7.8-1
		c0.6-0.1,1.2-0.2,1.8-0.3c0.7-0.2,1.3-0.6,1.7-1.1c0.4-0.6,0.6-1.3,0.6-2.2v-0.3c0-1.8-0.7-3.2-2.1-4.3c-1.4-1-3.3-1.5-5.7-1.5
		c-2.3,0-4.2,0.5-5.5,1.6s-2.1,2.7-2.4,4.9h-5.3c0.3-3.7,1.6-6.5,3.9-8.4c2.3-1.9,5.7-2.8,10.1-2.8c4.1,0,7.3,0.9,9.4,2.7
		c2.2,1.8,3.2,4.4,3.2,7.8v18.7c0,0.6,0.2,1,0.5,1.4c0.3,0.3,0.8,0.5,1.4,0.5c0.2,0,0.4,0,0.7-0.1c0.3,0,0.7-0.1,1.1-0.2v4.1
		c-0.6,0.2-1.1,0.4-1.7,0.5c-0.6,0.1-1.1,0.2-1.6,0.2c-2.2,0-3.7-0.6-4.7-1.8c-0.6-0.8-1.1-1.9-1.4-3.3c-0.4,0.5-0.9,1-1.5,1.5
		C348,412,344.5,413.3,340.3,413.3z M352.2,398.9v-3.7c-1.1,0.5-2.2,0.9-3.5,1l-5.2,0.8c-2.8,0.4-4.8,1-6,1.9s-1.9,2.1-1.9,3.7
		c0,1.9,0.5,3.4,1.6,4.4c1,1,2.5,1.5,4.4,1.5c3,0,5.5-0.8,7.6-2.4c1.4-1.1,2.4-2.4,2.8-3.9c0.1-0.3,0.1-0.7,0.2-1.3
		C352.1,400.3,352.2,399.6,352.2,398.9z"/>
	<path class="st0" d="M370.3,378.4h3.3h3.3l9.1,27.8h0l9.4-27.8h3.1h3.2l-12.7,34h-3H383L370.3,378.4z"/>
	<path class="st0" d="M413.2,365.7h5.8v6.5h-5.8V365.7z M413.2,378.4h2.9h2.9v34h-2.9h-2.9V378.4z"/>
	<path class="st0" d="M434,378.4h2.7h2.7v5l1.3-1.7c2.5-2.9,5.6-4.3,9.3-4.3c3.7,0,6.6,1,8.7,3s3,4.9,3,8.7v23.3h-2.9H456V391
		c0-3-0.6-5.1-1.7-6.5c-1.2-1.3-3-2-5.6-2c-2.8,0-4.9,1-6.5,3.1c-1.6,2.1-2.4,4.9-2.4,8.5v18.2h-2.9H434V378.4z"/>
	<path class="st0" d="M485.6,413.3c-3.3,0-6-0.9-7.9-2.7c-1.9-1.8-2.9-4.2-2.9-7.2c0-3,0.9-5.5,2.7-7.3c1.8-1.8,4.5-2.9,8-3.4l7.8-1
		c0.6-0.1,1.2-0.2,1.8-0.3c0.7-0.2,1.3-0.6,1.7-1.1c0.4-0.6,0.6-1.3,0.6-2.2v-0.3c0-1.8-0.7-3.2-2.1-4.3c-1.4-1-3.3-1.5-5.7-1.5
		c-2.3,0-4.2,0.5-5.5,1.6s-2.1,2.7-2.4,4.9h-5.3c0.3-3.7,1.6-6.5,3.9-8.4c2.3-1.9,5.7-2.8,10.1-2.8c4.1,0,7.3,0.9,9.4,2.7
		c2.2,1.8,3.2,4.4,3.2,7.8v18.7c0,0.6,0.2,1,0.5,1.4c0.3,0.3,0.8,0.5,1.4,0.5c0.2,0,0.4,0,0.7-0.1c0.3,0,0.7-0.1,1.1-0.2v4.1
		c-0.6,0.2-1.1,0.4-1.7,0.5c-0.6,0.1-1.1,0.2-1.6,0.2c-2.2,0-3.7-0.6-4.7-1.8c-0.6-0.8-1.1-1.9-1.4-3.3c-0.4,0.5-0.9,1-1.5,1.5
		C493.2,412,489.7,413.3,485.6,413.3z M497.4,398.9v-3.7c-1.1,0.5-2.2,0.9-3.5,1l-5.2,0.8c-2.8,0.4-4.8,1-6,1.9s-1.9,2.1-1.9,3.7
		c0,1.9,0.5,3.4,1.6,4.4c1,1,2.5,1.5,4.4,1.5c3,0,5.5-0.8,7.6-2.4c1.4-1.1,2.4-2.4,2.8-3.9c0.1-0.3,0.1-0.7,0.2-1.3
		C497.4,400.3,497.4,399.6,497.4,398.9z"/>
	<path class="st0" d="M519.4,365.7h2.9h2.9v46.7h-2.9h-2.9V365.7z"/>
	<path class="st0" d="M584.5,364.4l-25.2,49.1l-7.6,0l25.2-49.1L584.5,364.4z"/>
	<path class="st0" d="M594,405.8l25.7-9.9l-21.4-10l1.5-7l30,14.1l-1.2,5.9l-36,14L594,405.8z"/>
</g>
<g>
</g>
<g>
</g>
<g>
</g>
<g>
</g>
<g>
</g>
<g>
</g>
<g>
</g>
<g>
</g>
<g>
</g>
<g>
</g>
<g>
</g>
<g>
</g>
<g>
</g>
<g>
</g>
<g>
</g>
</svg>
